HIERARCHY
ROOT Hips
{
	OFFSET -1.974227 105.409012 -3.279584
	CHANNELS 6 Xposition Yposition Zposition Xrotation Yrotation Zrotation
	JOINT Chest
	{
		OFFSET 2.940344 13.303650 0.722150
		CHANNELS 3 Xrotation Yrotation Zrotation
		JOINT Chest2
		{
			OFFSET 3.179612 20.824432 3.911462
			CHANNELS 3 Xrotation Yrotation Zrotation
			JOINT Chest3
			{
				OFFSET 0.627476 14.912262 -0.224742
				CHANNELS 3 Xrotation Yrotation Zrotation
				JOINT Neck
				{
					OFFSET 0.274185 17.230911 1.279223
					CHANNELS 3 Xrotation Yrotation Zrotation
					JOINT Head
					{
						OFFSET -1.654283 10.119263 2.166015
						CHANNELS 3 Xrotation Yrotation Zrotation
						End Site
						{
							OFFSET -1.645926 10.135513 2.095232
						}
					}
				}
				JOINT LeftCollar
				{
					OFFSET 4.784082 12.980515 3.228499
					CHANNELS 3 Xrotation Yrotation Zrotation
					JOINT LeftUpArm
					{
						OFFSET 14.532368 5.593704 -8.125284
						CHANNELS 3 Xrotation Yrotation Zrotation
						JOINT LeftLowArm
						{
							OFFSET 23.061132 20.128693 14.238941
							CHANNELS 3 Xrotation Yrotation Zrotation
							JOINT LeftHand
							{
								OFFSET -26.345043 7.511490 12.266379
								CHANNELS 3 Xrotation Yrotation Zrotation
								End Site
								{
									OFFSET -5.757849 1.641724 2.680883
								}
							}
						}
					}
				}
				JOINT RightCollar
				{
					OFFSET -3.546612 13.024231 4.427121
					CHANNELS 3 Xrotation Yrotation Zrotation
					JOINT RightUpArm
					{
						OFFSET -16.918751 -3.628159 -3.014737
						CHANNELS 3 Xrotation Yrotation Zrotation
						JOINT RightLowArm
						{
							OFFSET -18.383831 -12.365417 25.472832
							CHANNELS 3 Xrotation Yrotation Zrotation
							JOINT RightHand
							{
								OFFSET 14.207071 26.267685 3.020452
								CHANNELS 3 Xrotation Yrotation Zrotation
								End Site
								{
									OFFSET 3.105106 5.741058 0.660149
								}
							}
						}
					}
				}
			}
		}
	}
	JOINT LeftUpLeg
	{
		OFFSET 9.778581 -2.134796 -0.491065
		CHANNELS 3 Xrotation Yrotation Zrotation
		JOINT LeftLowLeg
		{
			OFFSET 0.759645 -41.148338 23.456907
			CHANNELS 3 Xrotation Yrotation Zrotation
			JOINT LeftFoot
			{
				OFFSET -20.677874 -37.024258 -14.219643
				CHANNELS 3 Xrotation Yrotation Zrotation
				JOINT LeftToe
				{
					OFFSET -8.684329 -19.317760 10.534050
					CHANNELS 3 Xrotation Yrotation Zrotation
					End Site
					{
						OFFSET -1.142078 -10.268087 21.279589
					}
				}
			}
		}
	}
	JOINT RightUpLeg
	{
		OFFSET -9.778626 2.134605 0.491054
		CHANNELS 3 Xrotation Yrotation Zrotation
		JOINT RightLowLeg
		{
			OFFSET -0.354685 -47.176979 4.268290
			CHANNELS 3 Xrotation Yrotation Zrotation
			JOINT RightFoot
			{
				OFFSET 6.218884 -40.711609 -17.449051
				CHANNELS 3 Xrotation Yrotation Zrotation
				JOINT RightToe
				{
					OFFSET -0.264692 -18.907640 14.212238
					CHANNELS 3 Xrotation Yrotation Zrotation
					End Site
					{
						OFFSET -5.281231 -6.077994 22.242361
					}
				}
			}
		}
	}
}
MOTION
Frames: 8
Frame Time: 0.033333
1.669122 105.824234 -1.111724 5.313628 -3.869714 10.657274 -7.221457 1.362693 -1.353025 0.086579 5.310363 -5.364031 3.861510 -6.909347 -4.632936 -7.269732 9.604007 -4.769451 -0.000001 0.000001 0.000001 2.758461 6.663626 -42.189597 22.598408 7.690343 -78.300401 66.166037 48.748638 -103.461595 -0.000003 0.000003 -0.000001 7.763109 -9.823283 10.708413 42.318623 -2.369155 31.943480 104.997261 -3.603105 37.205663 -0.000000 0.000003 -0.000000 31.869400 -6.797091 -4.958837 -35.970177 9.498911 28.820905 -21.286705 0.932842 -2.239483 0.000001 -0.000001 0.000003 2.444396 0.278117 -12.513386 -7.177617 -1.558281 -6.458852 -1.278867 10.218745 2.318874 0.000001 -0.000002 0.000004 
1.673507 105.827034 -1.120030 5.168472 -3.902586 10.630602 -7.182437 1.330611 -1.300421 0.455103 5.219768 -5.337724 3.463262 -6.615795 -4.700137 -6.734094 9.486048 -4.630185 0.000001 -0.000000 0.000001 2.908824 6.176325 -42.297381 22.731843 7.724176 -78.223213 66.176166 48.987766 -103.423845 0.000003 -0.000001 0.000000 7.832122 -10.576177 11.020345 42.409041 -2.614336 31.658080 105.341475 -3.662227 37.144512 0.000000 0.000001 -0.000002 31.899425 -6.808056 -4.938992 -35.784833 9.470655 28.777544 -21.452419 1.111567 -2.146913 0.000003 0.000000 0.000002 2.470272 0.283245 -12.585838 -7.249258 -1.554537 -6.313642 -1.279936 10.180535 2.361226 0.000003 -0.000003 0.000000 
1.686319 105.833450 -1.128675 5.250019 -3.949942 10.614925 -7.201973 1.327856 -1.242121 0.235979 5.171303 -5.221445 3.537454 -6.802642 -4.792999 -6.287488 9.635026 -4.762109 -0.000001 0.000000 0.000001 2.927429 6.365586 -42.288399 22.713900 7.587978 -78.177731 66.032712 48.908495 -103.045322 0.000001 0.000004 0.000001 7.921748 -10.502198 11.062462 42.479600 -2.672753 31.585923 105.353079 -3.735066 37.191849 0.000001 -0.000005 0.000000 31.879553 -6.777372 -5.011015 -36.099927 9.478130 28.903090 -21.139301 1.057878 -2.159789 0.000005 0.000002 -0.000002 2.192172 0.321232 -12.579602 -6.750887 -1.392259 -6.336693 -1.458673 9.939667 2.288240 0.000001 -0.000001 0.000001 
1.698830 105.838806 -1.137242 5.547800 -3.820261 10.616535 -7.357124 1.361214 -1.252353 0.050572 5.179034 -5.167142 3.688482 -7.045365 -4.804292 -6.132574 9.696717 -4.808585 -0.000001 0.000000 0.000001 2.965507 6.569071 -42.334639 22.735084 7.051194 -77.982264 66.039815 49.305233 -102.997627 -0.000005 0.000004 0.000000 8.015512 -10.452320 11.110038 42.509786 -2.672061 31.376533 105.253304 -4.069967 36.942331 -0.000003 -0.000003 -0.000001 31.796986 -6.719900 -4.998733 -36.275538 9.589070 28.914619 -21.191104 0.896467 -2.268190 0.000002 0.000000 0.000002 1.894255 0.357724 -12.617590 -6.507073 -1.494854 -6.286472 -1.524222 9.856412 2.204452 0.000002 -0.000002 0.000002 
1.714124 105.843857 -1.145727 5.409083 -4.102259 10.728541 -7.713182 1.461446 -1.309846 0.943745 5.014349 -5.258677 3.081386 -6.673084 -4.782947 -6.066901 9.669898 -4.877134 0.000000 0.000000 0.000001 3.033369 6.259828 -42.392174 22.639953 6.917564 -77.814829 66.312893 49.486377 -103.796623 -0.000002 0.000002 -0.000004 8.008022 -11.130816 11.409343 42.403587 -2.782412 31.204600 105.676967 -3.983673 37.012365 0.000001 0.000003 -0.000002 32.117995 -6.812958 -5.196196 -36.615736 9.689586 29.002687 -20.879842 0.777406 -2.284121 0.000004 -0.000001 0.000003 1.641231 0.369089 -12.774697 -5.931797 -1.505237 -6.356381 -1.563770 10.266946 2.250768 -0.000001 -0.000001 -0.000002 
1.733816 105.852898 -1.157891 5.492819 -3.994657 10.794151 -7.858775 1.513085 -1.352668 1.035592 5.023170 -5.294464 3.177172 -6.705230 -4.753964 -6.508939 9.570282 -4.736526 0.000000 0.000001 0.000000 3.028588 6.195070 -42.300338 22.661938 6.825969 -77.943093 66.307859 49.561103 -103.906186 0.000001 0.000000 -0.000003 8.030278 -10.881383 11.427434 42.272884 -2.669151 31.119790 105.960133 -3.926922 37.568728 -0.000002 -0.000004 0.000002 31.982159 -6.861153 -5.266703 -36.605064 9.694162 29.002066 -21.071619 0.889209 -2.228031 0.000000 -0.000001 0.000002 1.454133 0.423116 -12.910936 -5.989387 -1.537686 -6.208063 -1.334454 10.190296 2.216186 0.000001 -0.000001 -0.000001 
1.754565 105.859604 -1.166176 5.528919 -3.785756 10.735614 -8.026972 1.531469 -1.261500 1.156134 4.943206 -5.224626 2.923553 -6.890329 -4.832772 -6.007020 9.632326 -4.842713 0.000000 -0.000000 0.000001 3.069801 6.121729 -42.306677 22.774427 7.142213 -78.198986 66.209129 49.574210 -103.653933 0.000002 0.000002 -0.000003 8.098197 -10.253584 11.326052 42.395442 -2.837641 31.140878 106.134965 -3.827642 37.582539 -0.000003 -0.000004 0.000002 31.808662 -6.860935 -5.223333 -36.336787 9.630476 29.000061 -21.320195 0.817389 -2.320406 0.000003 0.000000 0.000002 1.200926 0.520244 -12.895488 -5.719679 -1.504450 -6.154098 -1.313482 9.946901 2.112592 -0.000000 0.000001 0.000001 
1.775792 105.866432 -1.173962 4.989004 -3.868675 10.779944 -7.143502 1.347254 -1.438958 0.324526 5.085339 -5.164487 3.359233 -6.640599 -4.783578 -5.773769 9.441230 -4.786220 0.000000 0.000000 0.000001 3.118454 6.055340 -42.236657 22.854988 7.182652 -78.320919 66.175804 49.652764 -103.238985 0.000001 -0.000001 -0.000001 8.103280 -10.653042 11.327888 42.306434 -2.720103 31.012047 106.307154 -3.934796 37.352676 -0.000002 -0.000001 0.000003 32.446096 -6.930649 -5.300390 -36.596403 9.700833 29.082689 -21.242710 0.809793 -2.316064 -0.000000 0.000000 0.000002 1.800799 0.310471 -13.013699 -5.904215 -1.598840 -6.175196 -1.401926 10.187302 2.154138 0.000003 -0.000001 -0.000000 
